<svg width="131" height="109" viewBox="0 0 131 109" fill="none" xmlns="http://www.w3.org/2000/svg">
<path d="M6.06557 103.865C7.87627 107.224 11.7192 108.666 11.7192 108.666C11.7192 108.666 12.6265 104.662 10.8158 101.303C9.00506 97.9443 5.16209 96.5024 5.16209 96.5024C5.16209 96.5024 4.25486 100.506 6.06557 103.865Z" fill="#2F2E41"/>
<path d="M7.31026 102.76C10.5793 104.727 11.8383 108.635 11.8383 108.635C11.8383 108.635 7.79716 109.353 4.52809 107.385C1.25902 105.418 0 101.511 0 101.511C0 101.511 4.04119 100.793 7.31026 102.76Z" fill="#022F67"/>
<path d="M80.6032 5.2334H60.2065V5.52485H80.6032V5.2334Z" fill="#F2F2F2"/>
<path d="M75.067 5.45117H74.7756V8.14713H75.067V5.45117Z" fill="#F2F2F2"/>
<path d="M66.1797 5.45117H65.8883V8.14713H66.1797V5.45117Z" fill="#F2F2F2"/>
<path d="M90.9472 19.2231H70.5505V19.5146H90.9472V19.2231Z" fill="#F2F2F2"/>
<path d="M76.3779 16.5991H76.0865V19.2951H76.3779V16.5991Z" fill="#F2F2F2"/>
<path d="M85.2653 16.5991H84.9739V19.2951H85.2653V16.5991Z" fill="#F2F2F2"/>
<path d="M118.045 25.7798H97.6487V26.0712H118.045V25.7798Z" fill="#F2F2F2"/>
<path d="M103.477 23.1572H103.185V25.8532H103.477V23.1572Z" fill="#F2F2F2"/>
<path d="M112.363 23.1572H112.072V25.8532H112.363V23.1572Z" fill="#F2F2F2"/>
<path d="M116.006 93.3979H95.6093V93.6894H116.006V93.3979Z" fill="#F2F2F2"/>
<path d="M101.437 90.7754H101.146V93.4713H101.437V90.7754Z" fill="#F2F2F2"/>
<path d="M110.324 90.7754H110.033V93.4713H110.324V90.7754Z" fill="#F2F2F2"/>
<path d="M81.1856 46.6196H60.7889V46.9111H81.1856V46.6196Z" fill="#F2F2F2"/>
<path d="M66.6168 43.9961H66.3254V46.6921H66.6168V43.9961Z" fill="#F2F2F2"/>
<path d="M75.5038 43.9961H75.2124V46.6921H75.5038V43.9961Z" fill="#F2F2F2"/>
<path d="M87.5959 81.7397H67.1992V82.0312H87.5959V81.7397Z" fill="#F2F2F2"/>
<path d="M73.0271 79.1157H72.7357V81.8117H73.0271V79.1157Z" fill="#F2F2F2"/>
<path d="M81.9144 79.1157H81.623V81.8117H81.9144V79.1157Z" fill="#F2F2F2"/>
<path d="M120.231 71.1021H99.8344V71.3935H120.231V71.1021Z" fill="#F2F2F2"/>
<path d="M105.662 68.4785H105.371V71.1745H105.662V68.4785Z" fill="#F2F2F2"/>
<path d="M114.549 68.4785H114.258V71.1745H114.549V68.4785Z" fill="#F2F2F2"/>
<path d="M52.7485 102.328H18.251V102.08H52.5002V90.0402H21.1511L19.6282 86.8667L19.852 86.7593L21.3073 89.7919H52.7485V102.328Z" fill="#2F2E41"/>
<path d="M22.8427 108.409C24.282 108.409 25.4487 107.242 25.4487 105.803C25.4487 104.363 24.282 103.196 22.8427 103.196C21.4035 103.196 20.2368 104.363 20.2368 105.803C20.2368 107.242 21.4035 108.409 22.8427 108.409Z" fill="#3F3D56"/>
<path d="M48.5296 108.409C49.9688 108.409 51.1356 107.242 51.1356 105.803C51.1356 104.363 49.9688 103.196 48.5296 103.196C47.0904 103.196 45.9237 104.363 45.9237 105.803C45.9237 107.242 47.0904 108.409 48.5296 108.409Z" fill="#3F3D56"/>
<path d="M78.8079 52.0578C79.6988 52.0578 80.4211 51.3353 80.4211 50.4442C80.4211 49.553 79.6988 48.8306 78.8079 48.8306C77.917 48.8306 77.1947 49.553 77.1947 50.4442C77.1947 51.3353 77.917 52.0578 78.8079 52.0578Z" fill="#3F3D56"/>
<path d="M56.4384 85.9429H17.663L9.27295 58.5117H65.0789L65.0282 58.6731L56.4384 85.9429ZM17.8466 85.6947H56.2564L64.7406 58.76H9.60839L17.8466 85.6947Z" fill="#2F2E41"/>
<path d="M53.4119 84.5162H19.3541L11.9847 60.188H61.0011L60.9565 60.3312L53.4119 84.5162Z" fill="#F2F2F2"/>
<path d="M65.774 56.0613L65.5341 55.9976L67.1718 49.8232H76.6983V50.0716H67.3628L65.774 56.0613Z" fill="#2F2E41"/>
<path d="M62.2907 66.8286H11.9847V67.0769H62.2907V66.8286Z" fill="#2F2E41"/>
<path d="M59.4097 75.9741H14.782V76.2224H59.4097V75.9741Z" fill="#2F2E41"/>
<path d="M37.2995 58.6357H37.0513V85.8187H37.2995V58.6357Z" fill="#2F2E41"/>
<path d="M48.4112 58.6282L46.6296 85.8105L46.8773 85.8268L48.6589 58.6445L48.4112 58.6282Z" fill="#2F2E41"/>
<path d="M25.9446 58.6284L25.6969 58.6445L27.4681 85.8275L27.7158 85.8114L25.9446 58.6284Z" fill="#2F2E41"/>
<path d="M130.539 108.567H0V108.859H130.539V108.567Z" fill="#2F2E41"/>
<path d="M86.746 9.01663C86.746 9.01663 88.8757 15.0798 87.5651 16.0126C86.2545 16.9454 91.9885 24.5632 91.9885 24.5632L98.8693 22.6976L95.1012 16.3235C95.1012 16.3235 94.6097 9.94942 94.6097 9.01663C94.6097 8.08383 86.746 9.01663 86.746 9.01663Z" fill="#A0616A"/>
<path opacity="0.1" d="M86.746 9.01663C86.746 9.01663 88.8757 15.0798 87.5651 16.0126C86.2545 16.9454 91.9885 24.5632 91.9885 24.5632L98.8693 22.6976L95.1012 16.3235C95.1012 16.3235 94.6097 9.94942 94.6097 9.01663C94.6097 8.08383 86.746 9.01663 86.746 9.01663Z" fill="black"/>
<path d="M83.1711 52.2367C83.1711 52.2367 82.5494 60.01 83.1711 64.0521C83.7928 68.0942 84.7254 79.2878 84.7254 79.2878C84.7254 79.2878 84.7254 100.431 88.1447 100.742C91.5641 101.053 94.051 101.364 94.3618 100.12C94.6727 98.8765 92.8075 98.2547 93.7401 97.6328C94.6727 97.0109 94.9835 94.8344 93.7401 92.347C92.4967 89.8595 93.7401 64.674 93.7401 64.674L99.6463 80.5315C99.6463 80.5315 100.268 93.5907 100.89 95.4563C101.511 97.3219 100.268 100.742 102.444 101.053C104.62 101.364 107.107 99.4984 108.35 98.8765C109.594 98.2547 106.485 98.2547 107.107 97.9437C107.729 97.6328 109.594 96.7 108.972 96.3891C108.35 96.0781 107.729 81.1534 107.729 81.1534C107.729 81.1534 106.019 49.2828 103.843 48.0391C101.667 46.7954 100.268 48.9376 100.268 48.9376L83.1711 52.2367Z" fill="#2F2E41"/>
<path d="M88.7664 99.4985V101.986C88.7664 101.986 85.9687 108.748 88.7664 108.748C91.5641 108.748 93.74 109.448 93.74 108.516V100.12L88.7664 99.4985Z" fill="#2F2E41"/>
<path d="M107.107 99.4941V101.982C107.107 101.982 109.904 108.743 107.107 108.743C104.309 108.743 102.133 109.444 102.133 108.511V100.116L107.107 99.4941Z" fill="#2F2E41"/>
<path d="M91.0976 13.5251C94.1878 13.5251 96.6929 11.0193 96.6929 7.92832C96.6929 4.83731 94.1878 2.33154 91.0976 2.33154C88.0073 2.33154 85.5022 4.83731 85.5022 7.92832C85.5022 11.0193 88.0073 13.5251 91.0976 13.5251Z" fill="#A0616A"/>
<path d="M89.3883 18.3452C89.3883 18.3452 90.9426 23.0092 93.4294 22.0764L95.9162 21.1436L100.268 50.9931C100.268 50.9931 96.8488 55.968 91.8751 52.8587C86.9015 49.7493 89.3883 18.3452 89.3883 18.3452Z" fill="#9BC8FF"/>
<path d="M93.74 17.4128L95.1388 14.459C95.1388 14.459 103.376 18.3456 104.62 19.5894C105.863 20.8331 105.863 22.6987 105.863 22.6987L103.687 30.472C103.687 30.472 104.309 47.5732 104.309 48.1951C104.309 48.817 106.485 52.2372 104.931 50.9935C103.376 49.7498 103.066 48.5061 101.822 50.3716C100.579 52.2372 97.7811 54.4138 97.7811 54.4138L93.74 17.4128Z" fill="#022F67"/>
<path d="M104.62 39.7993L103.687 48.5054C103.687 48.5054 98.092 53.4803 99.3354 53.7913C100.579 54.1022 101.201 52.8585 101.201 52.8585C101.201 52.8585 103.377 55.035 104.62 53.7913C105.863 52.5475 108.972 40.7321 108.972 40.7321L104.62 39.7993Z" fill="#A0616A"/>
<path d="M91.2168 0.0189258C89.9763 -0.0254293 88.6489 -0.0473702 87.603 0.621248C87.1218 0.956799 86.6998 1.37006 86.3541 1.84412C85.3355 3.13213 84.4554 4.75274 84.8338 6.3508L85.2732 6.17937C85.2732 6.60594 85.1784 7.02717 84.9957 7.4126C85.0575 7.23261 85.2648 7.52357 85.2093 7.70564L84.7252 9.29416C85.521 9.00236 86.5109 9.59318 86.632 10.4322C86.6874 8.58716 86.8787 6.47143 88.3751 5.39105C89.1297 4.84623 90.0847 4.67991 91.0036 4.53221C91.8513 4.39596 92.7399 4.26603 93.5518 4.54516C94.3638 4.82429 95.0552 5.65487 94.8711 6.49367C95.2455 6.36468 95.6642 6.62565 95.8492 6.97582C96.0342 7.32599 96.0439 7.73907 96.0495 8.13509C96.4486 8.41719 96.9027 7.85701 97.0653 7.39609C97.4471 6.31416 97.7864 5.16247 97.5808 4.03372C97.3751 2.90497 96.4556 1.82628 95.3085 1.82245C95.4478 1.66949 95.522 1.46835 95.5157 1.26158L94.5702 1.18168C94.8102 1.14769 95.031 1.03128 95.1946 0.852404C94.815 1.27019 91.8306 0.0408738 91.2168 0.0189258Z" fill="#2F2E41"/>
<path d="M90.9424 16.4792C90.9424 16.4792 88.4119 13.9988 87.5012 14.1507C86.5905 14.3027 85.3471 16.4792 85.3471 16.4792C85.3471 16.4792 77.8866 18.9667 78.1974 21.4541C78.5083 23.9416 81.9277 36.0679 81.9277 36.0679C81.9277 36.0679 84.7254 50.6818 82.2385 52.2364C79.7517 53.7911 94.051 57.8332 94.3618 55.9676C94.6727 54.102 95.2944 35.4461 94.3618 32.6477C93.4292 29.8493 90.9424 16.4792 90.9424 16.4792Z" fill="#022F67"/>
<path d="M101.822 21.4541H105.666C105.666 21.4541 108.35 33.2695 108.661 34.5133C108.972 35.757 109.594 41.6647 109.283 41.6647C108.972 41.6647 102.755 40.421 102.755 41.3538L101.822 21.4541Z" fill="#022F67"/>
<path d="M101.692 50.7124H86.9771C85.5412 44.1051 85.4212 37.7213 86.9771 31.6221H101.692C99.3173 37.6116 99.1689 43.9516 101.692 50.7124Z" fill="#F2F2F2"/>
<path d="M80.9949 42.5978L85.3468 44.4634C85.3468 44.4634 93.7399 45.7071 93.7399 42.2868C93.7399 38.8666 85.3468 40.7322 85.3468 40.7322L82.549 39.8374L80.9949 42.5978Z" fill="#A0616A"/>
<path d="M81.9278 19.5884L78.1976 20.5212L75.3999 37.0006C75.3999 37.0006 74.4673 41.3536 76.0216 41.6646C77.5759 41.9755 81.9278 44.463 81.9278 44.463C81.9278 44.463 82.5495 39.799 83.7929 39.799L80.6844 37.3115L82.5495 26.4289L81.9278 19.5884Z" fill="#022F67"/>
<path d="M29.174 51.4287H8.77734V51.7202H29.174V51.4287Z" fill="#F2F2F2"/>
<path d="M14.6057 48.8052H14.3143V51.5011H14.6057V48.8052Z" fill="#F2F2F2"/>
<path d="M23.4929 48.8052H23.2015V51.5011H23.4929V48.8052Z" fill="#F2F2F2"/>
<path d="M36.3128 8.29297H15.9161V8.58442H36.3128V8.29297Z" fill="#F2F2F2"/>
<path d="M30.7766 8.51221H30.4852V11.2082H30.7766V8.51221Z" fill="#F2F2F2"/>
<path d="M21.8893 8.51221H21.5979V11.2082H21.8893V8.51221Z" fill="#F2F2F2"/>
<path d="M56.8556 37.002H36.4589V37.2934H56.8556V37.002Z" fill="#F2F2F2"/>
<path d="M51.3192 37.2202H51.0278V39.9162H51.3192V37.2202Z" fill="#F2F2F2"/>
<path d="M42.4324 37.2202H42.141V39.9162H42.4324V37.2202Z" fill="#F2F2F2"/>
<path d="M22.1819 36.8555H1.78516V37.1469H22.1819V36.8555Z" fill="#F2F2F2"/>
<path d="M16.6447 37.0742H16.3533V39.7702H16.6447V37.0742Z" fill="#F2F2F2"/>
<path d="M7.7583 37.0742H7.46692V39.7702H7.7583V37.0742Z" fill="#F2F2F2"/>
<path d="M46.6573 22.2827H26.2606V22.5742H46.6573V22.2827Z" fill="#F2F2F2"/>
<path d="M32.088 19.6602H31.7966V22.3561H32.088V19.6602Z" fill="#F2F2F2"/>
<path d="M40.9753 19.6602H40.684V22.3561H40.9753V19.6602Z" fill="#F2F2F2"/>
</svg>